<svg id="Layer_1" data-name="Layer 1" xmlns="http://www.w3.org/2000/svg" viewBox="0 0 724 402.4"><defs><style>.cls-1{fill:#fff;}.cls-2{fill:#a155f9;}.cls-3{fill:#abf24e;}</style></defs><title>LOGO_RGB_W</title><path class="cls-1" d="M349.15,220.21l-20.81-30.13h-1.5v30.13H309.93V135.73h29.53q12.29,0,20.45,7.89a26.39,26.39,0,0,1,8.19,19.79,25.32,25.32,0,0,1-5.5,16.2A27.06,27.06,0,0,1,348,189l22.18,31.21Zm-22.3-68.58v23.74h12.26a11.05,11.05,0,0,0,8.25-3.41,11.64,11.64,0,0,0,3.35-8.43,11.87,11.87,0,0,0-3.35-8.49,11,11,0,0,0-8.25-3.41Z"/><path class="cls-1" d="M385.44,155.58a9.73,9.73,0,0,1-7.17-2.87,10.11,10.11,0,0,1,0-14.11,10.4,10.4,0,0,1,14.35,0,10.11,10.11,0,0,1,0,14.11A9.73,9.73,0,0,1,385.44,155.58Zm-8,64.63V157.79h15.91v62.42Z"/><path class="cls-1" d="M461.61,165.62c5.8,6.28,8.67,14.05,8.67,23.32s-2.87,17.1-8.67,23.38a28.3,28.3,0,0,1-21.7,9.39A24.93,24.93,0,0,1,419.58,212v31.45H403.68V157.79h15.91V166a24.93,24.93,0,0,1,20.33-9.69A28.45,28.45,0,0,1,461.61,165.62Zm-24.87,40.66a16.85,16.85,0,1,0-12.26-5A16.64,16.64,0,0,0,436.74,206.28Z"/><path class="cls-1" d="M537.48,165.62c5.8,6.28,8.67,14.05,8.67,23.32s-2.87,17.1-8.67,23.38a28.29,28.29,0,0,1-21.7,9.39A24.93,24.93,0,0,1,495.45,212v31.45h-15.9V157.79h15.9V166a24.93,24.93,0,0,1,20.33-9.69A28.45,28.45,0,0,1,537.48,165.62ZM512.6,206.28a16.85,16.85,0,1,0-12.26-5A16.63,16.63,0,0,0,512.6,206.28Z"/><path class="cls-1" d="M555.41,220.21V135.73h15.9v84.48Z"/><path class="cls-1" d="M646.88,193H597.26c2.15,8,8.43,13.09,16.8,13.09,6.7,0,12.61-3.11,15.07-7.47h17A31,31,0,0,1,634,214.23a34.78,34.78,0,0,1-20.15,6c-9.57,0-17.58-3.11-24-9.39a33.13,33.13,0,0,1,0-46.7c6.4-6.22,14.41-9.33,24-9.33s17.52,3.11,23.92,9.33a31.61,31.61,0,0,1,9.63,23.5A25.14,25.14,0,0,1,646.88,193Zm-33.06-24.27a16.24,16.24,0,0,0-10.28,3.41,17.48,17.48,0,0,0-6,9.21h32.7a17.48,17.48,0,0,0-6-9.21A16.66,16.66,0,0,0,613.82,168.73Z"/><path class="cls-1" d="M364.44,291.24a25.15,25.15,0,0,1,3.95,13.81,21.68,21.68,0,0,1-6.7,16.38c-4.48,4.37-10.16,6.52-17,6.52H309.49V243.47h32a22.4,22.4,0,0,1,16,6.1A20.65,20.65,0,0,1,363.9,265a21.83,21.83,0,0,1-2.69,10.64,18.1,18.1,0,0,1-7,7.35A19.46,19.46,0,0,1,364.44,291.24Zm-38.5-32.58v18.59H337.3a9.19,9.19,0,0,0,9.21-9.33,9.17,9.17,0,0,0-2.63-6.58,8.79,8.79,0,0,0-6.58-2.69Zm14.59,54.11a10,10,0,0,0,7.53-3.05,11,11,0,0,0,0-15.07,10.24,10.24,0,0,0-7.53-3H325.94v21.17Z"/><path class="cls-1" d="M441.38,300.75H391.76c2.15,8,8.43,13.09,16.8,13.09,6.7,0,12.61-3.11,15.07-7.47h17A30.94,30.94,0,0,1,428.47,322a34.79,34.79,0,0,1-20.15,6c-9.57,0-17.58-3.11-24-9.39a33.13,33.13,0,0,1,0-46.7c6.4-6.22,14.41-9.33,24-9.33s17.52,3.11,23.92,9.33a31.61,31.61,0,0,1,9.63,23.5A25.14,25.14,0,0,1,441.38,300.75Zm-33.06-24.27A16.25,16.25,0,0,0,398,279.88a17.49,17.49,0,0,0-6,9.21H424.7a17.49,17.49,0,0,0-6-9.21A16.66,16.66,0,0,0,408.32,276.47Z"/><path class="cls-1" d="M466.43,274.68c4.84-6.76,10.88-10.17,18.24-10.17V281c-11.54,0-18.24,6.64-18.24,17.22V328h-15.9V265.53h15.9Z"/><path class="cls-1" d="M508.28,274.68c4.84-6.76,10.88-10.17,18.24-10.17V281c-11.54,0-18.24,6.64-18.24,17.22V328h-15.9V265.53h15.9Z"/><path class="cls-1" d="M582.71,265.53h17.88l-35.63,85.68H547.79l10-23.86-25.59-61.82h18.12L566.56,308Z"/><path class="cls-1" d="M620.86,296.62v3.9h-9V328h-4.17V300.52h-9v-3.9Z"/><path class="cls-1" d="M641.73,317.44H621.37a8.11,8.11,0,0,0,8.14,6.92,8.69,8.69,0,0,0,4.61-1.22A7,7,0,0,0,637,320h4.3a11.43,11.43,0,0,1-4.43,5.77,12.74,12.74,0,0,1-7.41,2.19,11.89,11.89,0,0,1-8.78-3.48,12.39,12.39,0,0,1,0-17.32,12.84,12.84,0,0,1,17.56,0,11.69,11.69,0,0,1,3.53,8.65A14.61,14.61,0,0,1,641.73,317.44Zm-12.22-10.16a8,8,0,0,0-5.28,1.84,8.09,8.09,0,0,0-2.82,4.83h16.23a8,8,0,0,0-2.79-4.81A8.13,8.13,0,0,0,629.51,307.29Z"/><path class="cls-1" d="M649.43,324.47a12.34,12.34,0,0,1,0-17.32,12.05,12.05,0,0,1,8.8-3.46,12.19,12.19,0,0,1,8.05,2.79,11.49,11.49,0,0,1,4.08,7.21h-4.1a8.4,8.4,0,0,0-14-3.86,8.19,8.19,0,0,0-2.37,6,8.1,8.1,0,0,0,2.37,6,8,8,0,0,0,5.94,2.4,8.15,8.15,0,0,0,5.17-1.73,7.94,7.94,0,0,0,2.86-4.5h4.1a11.49,11.49,0,0,1-4.08,7.21,12.18,12.18,0,0,1-8.05,2.79A12,12,0,0,1,649.43,324.47Z"/><path class="cls-1" d="M693.44,306.8a9.19,9.19,0,0,1,2.59,6.85V328h-3.9V314.87a6.84,6.84,0,0,0-1.84-5,6.52,6.52,0,0,0-4.92-1.88,7.07,7.07,0,0,0-5.12,1.91,6.68,6.68,0,0,0-2,5v13h-3.9V295.25h3.9v13.41a9.15,9.15,0,0,1,8.34-4.41A9.25,9.25,0,0,1,693.44,306.8Z"/><path class="cls-2" d="M257.13,219.28a90,90,0,0,1-.5,9.92c-5.17,49-47.34,87.33-96.68,87.33a97.22,97.22,0,0,1-55.52-17.38A35.92,35.92,0,0,1,94,273.77c0-16.92,11.16-30.24,27.47-34.13,18.81-4.49,37.29,10.39,55.1,2.27,20.94-9.54,27.43-37.48,12.65-55.21-9.51-11.42-24-14.48-38.22-14.48a88.18,88.18,0,0,0-59.4,23.15C74.39,211.19,63.2,236.5,63.2,260c0,27.8,13.92,54.26,36.25,70.67,20.57,15.12,44.37,18,69.15,17.38a310.24,310.24,0,0,0,50.87-5.65,120.32,120.32,0,1,1-75.49-219c2-.14,3.94-.2,5.92-.2.36,0,.73,0,1.09,0C204.89,123.14,256.85,164.1,257.13,219.28Z"/><path class="cls-3" d="M215.63,26.31v.54c0,19.33-8,41.35-21,52.73-13,12.51-30.91,14.38-50.73,19.55,0-19.38,8-41.47,21-52.94C177.83,33.59,195.77,31.61,215.63,26.31Z"/></svg>